HIERARCHY
ROOT Hips
{
	OFFSET -0.0000 111.0000 0.0000
	CHANNELS 6 Xposition Yposition Zposition Xrotation Yrotation Zrotation
	JOINT RightUpperLeg
	{
		OFFSET -10.5000 -8.8000 0.0000
		CHANNELS 3 Xrotation Yrotation Zrotation
		JOINT RightLowerLeg
		{
			OFFSET -0.0000 -45.6000 0.0000
			CHANNELS 3 Xrotation Yrotation Zrotation
			JOINT RightFoot
			{
				OFFSET -0.0000 -46.7000 0.0000
				CHANNELS 3 Xrotation Yrotation Zrotation
				JOINT RightToe
				{
					OFFSET -0.0000 -8.0000 12.1000
					CHANNELS 3 Xrotation Yrotation Zrotation
					End Site
					{
						OFFSET -0.0000 0.0000 2.4200
					}
				}
			}
		}
	}
	JOINT LeftUpperLeg
	{
		OFFSET 10.5000 -8.8000 0.0000
		CHANNELS 3 Xrotation Yrotation Zrotation
		JOINT LeftLowerLeg
		{
			OFFSET -0.0000 -45.6000 0.0000
			CHANNELS 3 Xrotation Yrotation Zrotation
			JOINT LeftFoot
			{
				OFFSET -0.0000 -46.7000 0.0000
				CHANNELS 3 Xrotation Yrotation Zrotation
				JOINT LeftToe
				{
					OFFSET -0.0000 -8.0000 12.1000
					CHANNELS 3 Xrotation Yrotation Zrotation
					End Site
					{
						OFFSET -0.0000 0.0000 2.4200
					}
				}
			}
		}
	}
	JOINT Spine
	{
		OFFSET -0.0000 9.7000 0.0000
		CHANNELS 3 Xrotation Yrotation Zrotation
		JOINT Spine1
		{
			OFFSET -0.0000 11.2000 0.0000
			CHANNELS 3 Xrotation Yrotation Zrotation
			JOINT Spine2
			{
				OFFSET -0.0000 12.1000 0.0000
				CHANNELS 3 Xrotation Yrotation Zrotation
				JOINT Spine3
				{
					OFFSET -0.0000 11.7000 1.2000
					CHANNELS 3 Xrotation Yrotation Zrotation
					JOINT Neck
					{
						OFFSET -0.0000 12.0000 -1.2000
						CHANNELS 3 Xrotation Yrotation Zrotation
						JOINT Head
						{
							OFFSET -0.0000 10.0000 0.0000
							CHANNELS 3 Xrotation Yrotation Zrotation
							End Site
							{
								OFFSET -0.0000 20.0000 0.0000
							}
						}
					}
					JOINT RightShoulder
					{
						OFFSET -4.9000 4.0000 -1.2000
						CHANNELS 3 Xrotation Yrotation Zrotation
						JOINT RightUpperArm
						{
							OFFSET -15.6000 0.0000 0.0000
							CHANNELS 3 Xrotation Yrotation Zrotation
							JOINT RightLowerArm
							{
								OFFSET -25.9000 0.0000 0.0000
								CHANNELS 3 Xrotation Yrotation Zrotation
								JOINT RightHand
								{
									OFFSET -28.4000 0.0000 0.0000
									CHANNELS 3 Xrotation Yrotation Zrotation
									JOINT RightThumbFinger
									{
										OFFSET -3.4000 0.3000 4.2000
										CHANNELS 3 Xrotation Yrotation Zrotation
										JOINT RightThumbFinger1
										{
											OFFSET -3.5000 0.0000 3.5000
											CHANNELS 3 Xrotation Yrotation Zrotation
											JOINT RightThumbFinger2
											{
												OFFSET -2.5000 0.0000 2.4000
												CHANNELS 3 Xrotation Yrotation Zrotation
												End Site
												{
													OFFSET -2.1450 0.0000 2.0592
												}
											}
										}
									}
									JOINT RightIndexFinger
									{
										OFFSET -4.4000 0.7000 2.6000
										CHANNELS 3 Xrotation Yrotation Zrotation
										JOINT RightIndexFinger1
										{
											OFFSET -7.0000 -0.1000 1.4000
											CHANNELS 3 Xrotation Yrotation Zrotation
											JOINT RightIndexFinger2
											{
												OFFSET -5.0000 -0.2000 0.0000
												CHANNELS 3 Xrotation Yrotation Zrotation
												JOINT RightIndexFinger3
												{
													OFFSET -2.7000 -0.2000 0.0000
													CHANNELS 3 Xrotation Yrotation Zrotation
													End Site
													{
														OFFSET -2.3814 -0.1764 0.0000
													}
												}
											}
										}
									}
									JOINT RightMiddleFinger
									{
										OFFSET -4.6000 0.7000 1.0000
										CHANNELS 3 Xrotation Yrotation Zrotation
										JOINT RightMiddleFinger1
										{
											OFFSET -7.0000 -0.1000 0.4000
											CHANNELS 3 Xrotation Yrotation Zrotation
											JOINT RightMiddleFinger2
											{
												OFFSET -5.3000 -0.3000 0.0000
												CHANNELS 3 Xrotation Yrotation Zrotation
												JOINT RightMiddleFinger3
												{
													OFFSET -3.4000 -0.3000 0.0000
													CHANNELS 3 Xrotation Yrotation Zrotation
													End Site
													{
														OFFSET -2.9988 -0.2646 0.0000
													}
												}
											}
										}
									}
									JOINT RightRingFinger
									{
										OFFSET -4.5000 0.8000 -0.1000
										CHANNELS 3 Xrotation Yrotation Zrotation
										JOINT RightRingFinger1
										{
											OFFSET -6.3000 -0.1000 -0.7000
											CHANNELS 3 Xrotation Yrotation Zrotation
											JOINT RightRingFinger2
											{
												OFFSET -4.7000 -0.4000 0.0000
												CHANNELS 3 Xrotation Yrotation Zrotation
												JOINT RightRingFinger3
												{
													OFFSET -3.2000 -0.3000 0.0000
													CHANNELS 3 Xrotation Yrotation Zrotation
													End Site
													{
														OFFSET -2.8224 -0.2646 0.0000
													}
												}
											}
										}
									}
									JOINT RightPinkyFinger
									{
										OFFSET -4.3000 0.7000 -1.6000
										CHANNELS 3 Xrotation Yrotation Zrotation
										JOINT RightPinkyFinger1
										{
											OFFSET -5.6000 -0.1000 -1.5000
											CHANNELS 3 Xrotation Yrotation Zrotation
											JOINT RightPinkyFinger2
											{
												OFFSET -3.7000 -0.2000 0.0000
												CHANNELS 3 Xrotation Yrotation Zrotation
												JOINT RightPinkyFinger3
												{
													OFFSET -2.4000 -0.1000 0.0000
													CHANNELS 3 Xrotation Yrotation Zrotation
													End Site
													{
														OFFSET -2.1168 -0.0882 0.0000
													}
												}
											}
										}
									}
								}
							}
						}
					}
					JOINT LeftShoulder
					{
						OFFSET 4.9000 4.0000 -1.2000
						CHANNELS 3 Xrotation Yrotation Zrotation
						JOINT LeftUpperArm
						{
							OFFSET 15.6000 0.0000 0.0000
							CHANNELS 3 Xrotation Yrotation Zrotation
							JOINT LeftLowerArm
							{
								OFFSET 25.9000 0.0000 0.0000
								CHANNELS 3 Xrotation Yrotation Zrotation
								JOINT LeftHand
								{
									OFFSET 28.4000 0.0000 0.0000
									CHANNELS 3 Xrotation Yrotation Zrotation
									JOINT LeftThumbFinger
									{
										OFFSET 3.4000 0.3000 4.2000
										CHANNELS 3 Xrotation Yrotation Zrotation
										JOINT LeftThumbFinger1
										{
											OFFSET 3.5000 0.0000 3.5000
											CHANNELS 3 Xrotation Yrotation Zrotation
											JOINT LeftThumbFinger2
											{
												OFFSET 2.5000 0.0000 2.5000
												CHANNELS 3 Xrotation Yrotation Zrotation
												End Site
												{
													OFFSET 2.1450 0.0000 2.1450
												}
											}
										}
									}
									JOINT LeftIndexFinger
									{
										OFFSET 4.4000 0.7000 2.6000
										CHANNELS 3 Xrotation Yrotation Zrotation
										JOINT LeftIndexFinger1
										{
											OFFSET 7.0000 -0.1000 1.4000
											CHANNELS 3 Xrotation Yrotation Zrotation
											JOINT LeftIndexFinger2
											{
												OFFSET 5.0000 -0.2000 0.0000
												CHANNELS 3 Xrotation Yrotation Zrotation
												JOINT LeftIndexFinger3
												{
													OFFSET 2.7000 -0.2000 0.0000
													CHANNELS 3 Xrotation Yrotation Zrotation
													End Site
													{
														OFFSET 2.3814 -0.1764 0.0000
													}
												}
											}
										}
									}
									JOINT LeftMiddleFinger
									{
										OFFSET 4.6000 0.7000 1.0000
										CHANNELS 3 Xrotation Yrotation Zrotation
										JOINT LeftMiddleFinger1
										{
											OFFSET 7.0000 -0.1000 0.4000
											CHANNELS 3 Xrotation Yrotation Zrotation
											JOINT LeftMiddleFinger2
											{
												OFFSET 5.3000 -0.3000 0.0000
												CHANNELS 3 Xrotation Yrotation Zrotation
												JOINT LeftMiddleFinger3
												{
													OFFSET 3.4000 -0.3000 0.0000
													CHANNELS 3 Xrotation Yrotation Zrotation
													End Site
													{
														OFFSET 2.9988 -0.2646 0.0000
													}
												}
											}
										}
									}
									JOINT LeftRingFinger
									{
										OFFSET 4.5000 0.8000 -0.1000
										CHANNELS 3 Xrotation Yrotation Zrotation
										JOINT LeftRingFinger1
										{
											OFFSET 6.3000 -0.1000 -0.7000
											CHANNELS 3 Xrotation Yrotation Zrotation
											JOINT LeftRingFinger2
											{
												OFFSET 4.7000 -0.3000 0.0000
												CHANNELS 3 Xrotation Yrotation Zrotation
												JOINT LeftRingFinger3
												{
													OFFSET 3.2000 -0.2000 0.0000
													CHANNELS 3 Xrotation Yrotation Zrotation
													End Site
													{
														OFFSET 2.8224 -0.1764 0.0000
													}
												}
											}
										}
									}
									JOINT LeftPinkyFinger
									{
										OFFSET 4.3000 0.7000 -1.6000
										CHANNELS 3 Xrotation Yrotation Zrotation
										JOINT LeftPinkyFinger1
										{
											OFFSET 5.6000 -0.1000 -1.5000
											CHANNELS 3 Xrotation Yrotation Zrotation
											JOINT LeftPinkyFinger2
											{
												OFFSET 3.7000 -0.2000 0.1000
												CHANNELS 3 Xrotation Yrotation Zrotation
												JOINT LeftPinkyFinger3
												{
													OFFSET 2.4000 -0.1000 -0.1000
													CHANNELS 3 Xrotation Yrotation Zrotation
													End Site
													{
														OFFSET 2.1168 -0.0882 -0.0882
													}
												}
											}
										}
									}
								}
							}
						}
					}
				}
			}
		}
	}
}
MOTION
Frames: 11
Frame Time: 0.010417
-0.00 111.00 0.00 -0.00 0.00 0.00 -0.00 0.00 -0.00 -0.00 0.00 -0.00 -0.00 0.00 -0.00 -0.00 0.00 -0.00 -0.00 0.00 -0.00 -0.00 0.00 -0.00 -0.00 0.00 -0.00 -0.00 0.00 -0.00 -0.00 0.00 -0.00 -0.00 0.00 -0.00 -0.00 0.00 -0.00 -0.00 0.00 -0.00 -0.00 0.00 -0.00 -0.00 0.00 -0.00 -0.00 0.00 -0.00 -0.00 0.00 -0.00 -0.00 0.00 -0.00 -0.00 0.00 -0.00 -0.00 0.00 -0.00 -0.00 0.00 -0.00 -0.00 0.00 -0.00 -0.00 0.00 -0.00 -0.00 0.00 -0.00 -0.00 0.00 -0.00 -0.00 0.00 -0.00 -0.00 0.00 -0.00 -0.00 0.00 -0.00 -0.00 0.00 -0.00 -0.00 0.00 -0.00 -0.00 0.00 -0.00 -0.00 0.00 -0.00 -0.00 0.00 -0.00 -0.00 0.00 -0.00 -0.00 0.00 -0.00 -0.00 0.00 -0.00 -0.00 0.00 -0.00 -0.00 0.00 -0.00 -0.00 0.00 -0.00 -0.00 0.00 -0.00 -0.00 0.00 -0.00 -0.00 0.00 -0.00 -0.00 0.00 -0.00 -0.00 0.00 -0.00 -0.00 0.00 -0.00 -0.00 0.00 -0.00 -0.00 0.00 -0.00 -0.00 0.00 -0.00 -0.00 0.00 -0.00 -0.00 0.00 -0.00 -0.00 0.00 -0.00 -0.00 0.00 -0.00 -0.00 0.00 -0.00 -0.00 0.00 -0.00 -0.00 0.00 -0.00 -0.00 0.00 -0.00 -0.00 0.00 -0.00 -0.00 0.00 -0.00 -0.00 0.00 -0.00 -0.00 0.00 -0.00 -0.00 0.00 -0.00 
1.09 105.78 8.42 28.18 21.89 -4.49 -50.51 12.94 -2.30 37.87 7.07 -2.62 -13.19 -15.45 2.20 -0.00 0.00 0.00 -41.22 -4.24 8.01 32.50 28.80 -22.53 -6.68 3.77 0.81 -0.00 -0.00 0.00 5.27 3.37 5.41 6.38 -0.06 3.42 6.88 -0.05 3.70 6.89 -0.04 3.68 -14.85 -11.66 -1.36 -12.60 -9.96 -0.95 -11.69 -3.47 -2.98 -43.71 6.47 44.22 7.32 20.20 1.57 50.60 20.84 -73.23 34.83 -0.00 -0.01 14.32 -27.72 15.03 12.55 -31.46 32.14 0.00 0.00 -0.00 -0.06 2.00 1.77 -0.56 -0.19 17.22 -0.28 -0.14 8.96 0.00 0.00 -0.00 0.01 0.01 1.37 -0.01 -0.00 14.74 -0.00 -0.00 7.59 0.00 0.00 -0.00 -0.34 -1.93 -10.01 -0.00 0.00 -0.00 -0.00 0.00 -0.00 0.00 0.00 -0.00 0.42 -3.95 6.08 1.72 1.46 34.21 0.67 1.13 19.11 -6.63 -1.24 -3.82 -8.17 -15.14 -79.85 5.82 -24.50 -8.14 -1.53 -4.17 13.54 27.57 0.01 -0.01 11.07 4.75 -7.55 15.53 3.58 -12.83 -0.00 0.00 0.00 -0.06 -2.00 -1.88 -0.59 0.20 -17.91 -0.29 0.17 -9.33 -0.00 0.00 0.00 0.00 0.01 -5.57 -0.00 -0.00 -32.83 -0.00 -0.00 -18.19 -0.00 0.00 0.00 0.15 1.99 -4.41 0.82 -0.54 -29.01 0.35 -0.42 -15.81 -0.00 0.00 0.00 0.93 3.77 -13.86 1.34 -2.77 -50.40 0.00 -1.73 -30.62 
1.32 105.85 8.50 27.84 21.78 -4.28 -50.04 12.96 -2.50 37.72 7.09 -2.50 -12.97 -15.22 2.29 -0.00 0.00 -0.00 -40.77 -4.48 7.99 32.63 28.85 -22.78 -6.71 3.85 0.83 -0.00 0.00 0.00 5.27 3.35 5.42 6.37 -0.04 3.41 6.88 -0.02 3.69 6.89 -0.03 3.70 -14.74 -12.04 -1.38 -12.51 -10.27 -0.98 -11.56 -3.40 -3.10 -43.50 6.50 44.15 7.26 20.06 1.61 50.64 20.86 -73.30 34.71 -0.01 -0.01 14.24 -27.72 15.05 12.34 -31.50 32.09 0.00 -0.00 -0.00 -0.06 1.99 1.72 -0.54 -0.18 16.96 -0.29 -0.14 8.82 0.00 -0.00 -0.00 -0.00 -0.00 1.31 0.01 0.00 14.35 -0.01 0.00 7.38 0.00 -0.00 -0.00 -0.34 -1.94 -10.01 0.00 0.00 -0.00 0.00 0.00 -0.00 0.00 -0.00 -0.00 0.42 -3.96 6.03 1.72 1.45 34.09 0.66 1.13 19.04 -6.52 -1.12 -3.83 -8.14 -14.89 -79.82 6.19 -24.58 -8.17 -1.74 -4.18 13.33 27.40 -0.00 -0.00 11.01 4.62 -7.60 15.46 3.40 -12.83 0.00 0.00 0.00 -0.06 -2.00 -1.83 -0.58 0.21 -17.60 -0.28 0.15 -9.17 0.00 0.00 0.00 -0.01 -0.00 -5.59 0.00 0.00 -32.89 0.00 -0.01 -18.22 0.00 0.00 0.00 0.15 1.98 -4.40 0.81 -0.53 -28.98 0.35 -0.42 -15.80 0.00 0.00 0.00 0.93 3.76 -13.87 1.33 -2.78 -50.42 0.00 -1.73 -30.65 
1.54 105.93 8.55 27.47 21.61 -4.10 -49.57 12.97 -2.65 37.52 7.09 -2.38 -12.67 -14.94 2.41 -0.00 -0.00 -0.00 -40.33 -4.77 8.02 32.76 28.76 -22.98 -6.72 4.01 0.83 -0.00 0.00 -0.00 5.27 3.37 5.44 6.37 -0.01 3.41 6.88 0.00 3.67 6.88 0.00 3.68 -14.62 -12.42 -1.37 -12.39 -10.60 -0.96 -11.38 -3.32 -3.14 -43.44 6.67 44.08 7.08 19.49 1.76 50.90 20.95 -73.61 34.71 -0.01 -0.00 14.24 -27.72 15.05 12.34 -31.50 32.09 -0.00 0.00 -0.00 -0.07 1.99 1.72 -0.54 -0.18 16.96 -0.28 -0.15 8.81 -0.00 0.00 -0.00 -0.00 -0.00 1.31 0.00 0.00 14.36 -0.01 -0.00 7.38 -0.00 0.00 -0.00 -0.34 -1.94 -10.00 0.00 0.00 -0.00 0.00 0.00 -0.00 -0.00 0.00 -0.00 0.41 -3.96 6.04 1.72 1.45 34.09 0.67 1.11 19.04 -6.36 -1.02 -3.83 -8.10 -14.62 -79.74 6.49 -24.68 -8.27 -1.82 -4.18 13.13 27.40 0.01 -0.01 11.01 4.62 -7.60 15.45 3.40 -12.83 0.00 0.00 -0.00 -0.06 -2.00 -1.82 -0.58 0.21 -17.61 -0.28 0.15 -9.17 0.00 0.00 -0.00 0.00 0.00 -5.59 -0.00 0.01 -32.89 -0.00 -0.01 -18.23 0.00 0.00 -0.00 0.15 2.00 -4.40 0.81 -0.54 -28.98 0.36 -0.41 -15.80 0.00 0.00 -0.00 0.93 3.78 -13.87 1.33 -2.78 -50.43 0.00 -1.73 -30.64 
1.77 106.01 8.55 27.10 21.41 -3.95 -49.14 12.96 -2.79 37.32 7.06 -2.25 -12.32 -14.60 2.55 -0.00 0.00 0.00 -39.96 -5.21 8.07 32.91 28.54 -23.13 -6.70 4.22 0.78 -0.00 0.00 -0.00 5.27 3.41 5.49 6.37 0.01 3.40 6.88 0.03 3.66 6.88 0.04 3.67 -14.50 -12.82 -1.36 -12.29 -10.93 -0.96 -11.19 -3.24 -3.20 -43.43 6.84 44.03 6.86 18.75 1.99 51.28 21.07 -74.06 34.51 -0.01 -0.00 14.15 -27.78 15.19 11.89 -31.52 32.11 -0.00 -0.00 0.00 -0.07 2.00 1.62 -0.53 -0.17 16.40 -0.27 -0.13 8.50 -0.00 -0.00 0.00 -0.01 -0.00 1.27 0.02 0.00 14.05 -0.01 0.00 7.21 -0.00 -0.00 0.00 -0.35 -1.94 -10.01 -0.00 0.00 0.00 -0.00 0.00 0.00 -0.00 -0.00 0.00 0.41 -3.96 6.08 1.72 1.46 34.19 0.66 1.13 19.09 -6.21 -0.92 -3.84 -8.11 -14.27 -79.64 6.77 -24.78 -8.47 -1.88 -4.12 12.84 27.12 0.01 -0.01 10.90 4.45 -7.63 15.33 3.17 -12.79 0.00 -0.00 0.00 -0.05 -2.00 -1.69 -0.56 0.19 -16.86 -0.27 0.14 -8.76 0.00 -0.00 0.00 -0.00 0.00 -5.53 0.01 -0.00 -32.69 -0.01 0.00 -18.11 0.00 -0.00 0.00 0.16 1.99 -4.34 0.80 -0.52 -28.80 0.35 -0.41 -15.68 0.00 -0.00 0.00 0.93 3.78 -13.76 1.35 -2.77 -50.26 -0.00 -1.75 -30.50 
1.99 106.09 8.56 26.68 21.18 -3.75 -48.65 12.94 -2.90 37.10 7.12 -2.19 -11.98 -14.32 2.69 -0.00 -0.00 0.00 -39.53 -5.58 8.12 33.04 28.31 -23.27 -6.68 4.44 0.72 -0.00 -0.00 -0.00 5.26 3.44 5.49 6.36 0.06 3.37 6.88 0.08 3.64 6.87 0.08 3.64 -14.36 -13.20 -1.33 -12.17 -11.27 -0.92 -10.87 -3.17 -3.20 -43.69 7.14 44.02 6.62 17.61 2.25 51.77 21.30 -74.68 34.17 0.00 0.00 13.94 -27.89 15.26 11.27 -31.69 32.04 0.00 0.00 0.00 -0.05 2.00 1.49 -0.50 -0.15 15.49 -0.26 -0.12 8.00 0.00 0.00 0.00 -0.00 0.00 1.21 0.02 -0.00 13.58 -0.01 0.00 6.97 0.00 0.00 0.00 -0.34 -1.94 -10.00 -0.00 0.00 -0.00 -0.00 0.00 -0.00 0.00 0.00 0.00 0.42 -3.96 6.10 1.72 1.47 34.24 0.66 1.13 19.14 -6.07 -0.86 -3.82 -7.89 -14.20 -79.62 6.86 -24.82 -8.54 -1.90 -4.10 12.75 26.89 0.01 -0.01 10.81 4.33 -7.66 15.25 3.02 -12.78 0.00 -0.00 -0.00 -0.05 -2.00 -1.60 -0.54 0.18 -16.24 -0.25 0.13 -8.42 0.00 -0.00 -0.00 0.00 -0.00 -5.50 0.00 -0.00 -32.60 -0.01 0.00 -18.04 0.00 -0.00 -0.00 0.15 1.99 -4.32 0.81 -0.53 -28.68 0.36 -0.40 -15.61 0.00 -0.00 -0.00 0.92 3.77 -13.70 1.35 -2.75 -50.16 0.00 -1.76 -30.43 
2.10 106.21 8.52 26.23 20.92 -3.53 -48.16 12.93 -2.96 36.78 7.10 -2.10 -11.56 -13.96 2.79 0.00 0.00 0.00 -39.17 -6.00 8.11 33.25 27.79 -23.33 -6.82 4.71 0.67 -0.00 0.00 -0.00 5.25 3.48 5.49 6.36 0.10 3.33 6.87 0.13 3.61 6.87 0.13 3.60 -14.21 -13.55 -1.30 -12.05 -11.56 -0.89 -10.51 -3.07 -3.19 -43.69 7.17 43.93 6.53 17.23 2.34 51.98 21.22 -74.88 33.58 -0.01 -0.00 13.63 -28.02 15.29 10.38 -31.94 31.76 0.00 0.00 0.00 -0.05 2.00 1.34 -0.47 -0.14 14.53 -0.25 -0.11 7.49 0.00 0.00 0.00 -0.00 0.00 1.10 0.01 -0.01 12.76 0.00 0.00 6.53 0.00 0.00 0.00 -0.34 -1.95 -10.00 0.00 0.00 0.00 0.00 0.00 0.00 0.00 0.00 0.00 0.42 -3.96 6.01 1.71 1.44 33.99 0.67 1.12 18.97 -5.92 -0.80 -3.83 -7.77 -13.95 -79.48 6.97 -24.86 -8.75 -1.94 -4.07 12.42 26.88 0.01 0.00 10.82 4.33 -7.66 15.25 3.01 -12.79 0.00 0.00 -0.00 -0.05 -2.00 -1.60 -0.54 0.17 -16.25 -0.26 0.13 -8.42 0.00 0.00 -0.00 0.00 -0.00 -5.49 -0.01 0.00 -32.60 0.00 0.00 -18.04 0.00 0.00 -0.00 0.15 1.99 -4.31 0.80 -0.53 -28.68 0.34 -0.40 -15.61 0.00 0.00 -0.00 0.92 3.78 -13.70 1.35 -2.76 -50.15 -0.01 -1.76 -30.43 
2.09 106.36 8.45 25.72 20.72 -3.24 -47.56 12.89 -3.04 36.35 7.08 -2.06 -11.08 -13.61 2.85 0.00 0.00 0.00 -38.79 -6.44 7.95 33.45 27.09 -23.23 -7.04 4.89 0.59 0.00 0.00 -0.00 5.27 3.46 5.44 6.36 0.15 3.29 6.88 0.17 3.57 6.86 0.18 3.57 -14.07 -13.90 -1.27 -11.92 -11.85 -0.86 -10.17 -2.99 -3.14 -44.01 7.55 43.92 6.21 15.84 2.61 52.63 21.31 -75.49 33.58 0.00 -0.01 13.64 -28.02 15.30 10.39 -31.95 31.77 0.00 0.00 0.00 -0.05 1.99 1.35 -0.47 -0.13 14.54 -0.24 -0.10 7.47 0.00 0.00 0.00 -0.00 0.00 1.10 0.01 -0.00 12.76 0.01 -0.00 6.53 0.00 0.00 0.00 -0.34 -1.93 -10.00 -0.00 0.00 0.00 -0.00 0.00 0.00 0.00 0.00 0.00 0.42 -3.95 6.02 1.71 1.44 33.98 0.67 1.12 18.98 -5.81 -0.76 -3.87 -7.74 -13.68 -79.31 7.04 -24.79 -8.96 -1.97 -4.05 12.02 26.80 0.00 -0.01 10.78 4.20 -7.69 15.22 2.83 -12.78 0.00 0.00 0.00 -0.06 -2.00 -1.60 -0.53 0.18 -16.21 -0.27 0.13 -8.41 0.00 0.00 0.00 0.00 0.00 -5.48 -0.01 0.00 -32.54 0.01 0.00 -18.01 0.00 0.00 0.00 0.15 1.99 -4.32 0.80 -0.52 -28.72 0.36 -0.40 -15.63 0.00 0.00 0.00 0.92 3.78 -13.70 1.36 -2.76 -50.16 -0.01 -1.76 -30.43 
2.03 106.54 8.40 25.23 20.59 -2.88 -46.90 12.79 -3.21 35.85 7.16 -2.06 -10.69 -13.33 2.87 0.00 0.00 0.00 -38.46 -6.85 7.63 33.69 26.37 -23.13 -7.34 5.07 0.54 -0.00 0.00 -0.00 5.25 3.36 5.30 6.35 0.19 3.26 6.84 0.22 3.52 6.85 0.23 3.52 -13.87 -14.18 -1.23 -11.77 -12.10 -0.82 -9.74 -2.89 -3.05 -44.67 8.10 44.04 5.81 13.85 2.82 53.56 21.49 -76.13 32.81 -0.01 -0.01 13.22 -28.07 15.42 9.15 -32.04 31.48 0.00 0.00 -0.00 -0.05 2.00 1.15 -0.43 -0.10 13.12 -0.22 -0.09 6.72 0.00 0.00 -0.00 0.00 -0.00 0.94 0.00 0.01 11.54 -0.00 -0.00 5.88 0.00 0.00 -0.00 -0.34 -1.94 -10.00 -0.00 0.00 -0.00 -0.00 0.00 -0.00 0.00 0.00 -0.00 0.39 -3.96 5.63 1.70 1.36 32.87 0.68 1.05 18.25 -5.61 -0.73 -3.87 -7.46 -13.63 -79.22 7.07 -24.77 -9.04 -1.99 -4.04 11.88 26.88 0.01 -0.01 10.80 4.26 -7.77 15.24 2.89 -12.92 0.00 0.00 0.00 -0.06 -1.99 -1.74 -0.56 0.18 -17.07 -0.28 0.14 -8.87 0.00 0.00 0.00 -0.00 0.01 -5.47 -0.00 -0.00 -32.53 0.00 0.00 -18.01 0.00 0.00 0.00 0.15 2.00 -4.30 0.80 -0.53 -28.67 0.36 -0.40 -15.60 0.00 0.00 0.00 0.92 3.78 -13.60 1.36 -2.75 -49.99 -0.01 -1.78 -30.30 
1.88 106.75 8.30 24.64 20.46 -2.50 -46.16 12.66 -3.32 35.28 7.22 -2.07 -10.23 -13.04 2.84 -0.00 0.00 0.00 -38.04 -7.29 7.32 33.89 25.43 -22.95 -7.78 5.18 0.49 -0.00 -0.00 -0.00 5.23 3.26 5.19 6.34 0.24 3.21 6.83 0.27 3.48 6.84 0.28 3.47 -13.66 -14.41 -1.21 -11.57 -12.30 -0.81 -9.29 -2.81 -2.97 -44.75 8.22 43.98 5.67 13.19 2.90 53.89 21.54 -76.35 32.04 -0.01 -0.01 12.81 -27.91 15.82 7.71 -31.67 31.40 -0.00 0.00 -0.00 -0.03 1.99 0.94 -0.38 -0.08 11.56 -0.20 -0.08 5.90 -0.00 0.00 -0.00 -0.01 -0.00 0.78 0.01 -0.00 10.29 -0.00 0.01 5.22 -0.00 0.00 -0.00 -0.35 -1.94 -10.01 -0.00 -0.00 -0.00 -0.00 -0.00 -0.00 -0.00 0.00 -0.00 0.37 -3.97 5.44 1.69 1.31 32.29 0.69 1.01 17.89 -5.40 -0.72 -3.91 -7.43 -13.43 -79.11 7.11 -24.59 -9.15 -2.01 -3.98 11.56 27.06 0.01 -0.00 10.89 4.48 -7.86 15.28 3.12 -13.16 0.00 -0.00 -0.00 -0.07 -1.99 -1.84 -0.57 0.21 -17.68 -0.28 0.15 -9.21 0.00 -0.00 -0.00 -0.01 -0.00 -5.49 -0.00 0.01 -32.59 -0.00 -0.01 -18.02 0.00 -0.00 -0.00 0.14 1.99 -4.27 0.81 -0.52 -28.55 0.35 -0.40 -15.53 0.00 -0.00 -0.00 0.89 3.78 -13.45 1.37 -2.72 -49.75 0.01 -1.80 -30.11 
1.65 106.97 8.20 23.96 20.39 -2.05 -45.28 12.50 -3.46 34.64 7.31 -2.11 -9.74 -12.81 2.79 0.00 -0.00 0.00 -37.55 -7.71 6.84 33.95 24.31 -22.58 -8.30 5.26 0.44 -0.00 -0.00 0.00 5.23 3.11 5.03 6.31 0.29 3.18 6.81 0.31 3.43 6.81 0.32 3.43 -13.35 -14.62 -1.22 -11.31 -12.48 -0.81 -8.79 -2.71 -2.91 -45.24 8.44 44.09 5.03 11.31 3.15 55.03 21.91 -76.72 32.04 -0.00 -0.01 12.81 -27.91 15.80 7.73 -31.67 31.41 -0.00 0.00 0.00 -0.03 2.00 0.95 -0.38 -0.08 11.55 -0.19 -0.07 5.90 -0.00 0.00 0.00 0.00 -0.00 0.79 0.01 0.01 10.28 -0.01 -0.00 5.22 -0.00 0.00 0.00 -0.34 -1.94 -10.00 0.00 -0.00 -0.00 0.00 -0.00 -0.00 -0.00 0.00 0.00 0.38 -3.96 5.44 1.70 1.31 32.29 0.69 1.02 17.89 -5.12 -0.73 -3.96 -7.47 -13.12 -79.03 7.24 -24.32 -9.15 -2.08 -3.88 11.21 27.07 0.01 -0.01 10.89 4.48 -7.86 15.28 3.13 -13.16 -0.00 -0.00 -0.00 -0.07 -2.00 -1.84 -0.57 0.21 -17.68 -0.28 0.15 -9.21 -0.00 -0.00 -0.00 0.01 -0.00 -5.49 -0.01 -0.00 -32.58 -0.00 0.00 -18.03 -0.00 -0.00 -0.00 0.16 1.99 -4.28 0.79 -0.52 -28.56 0.35 -0.39 -15.52 -0.00 -0.00 -0.00 0.91 3.78 -13.46 1.37 -2.72 -49.74 0.00 -1.80 -30.12 
